<svg width="24" height="24" viewBox="0 0 24 24" fill="none" xmlns="http://www.w3.org/2000/svg">
<path d="M20.8 10.2632C20.8 5.14725 16.8602 1 12 1C7.13995 1 3.20007 5.14725 3.20007 10.2632" stroke="white" stroke-width="1.5" stroke-linecap="round" stroke-linejoin="round"/>
<path d="M1 15.4024V13.2292C1 12.1665 1.68705 11.2403 2.66642 10.9826L4.57992 10.479C4.99648 10.3693 5.39999 10.701 5.39999 11.153V17.4786C5.39999 17.9306 4.99648 18.2622 4.57992 18.1526L2.66642 17.649C1.68705 17.3913 1 16.4651 1 15.4024Z" stroke="white" stroke-width="1.5"/>
<path d="M23 15.4024V13.2292C23 12.1665 22.3129 11.2403 21.3336 10.9826L19.42 10.479C19.0035 10.3693 18.6 10.701 18.6 11.153V17.4786C18.6 17.9306 19.0035 18.2622 19.42 18.1526L21.3336 17.649C22.3129 17.3913 23 16.4651 23 15.4024Z" stroke="white" stroke-width="1.5"/>
<path d="M20.8001 18.3684V18.9474C20.8001 20.2264 19.8152 21.2632 18.6001 21.2632H14.7501" stroke="white" stroke-width="1.5"/>
<path d="M13.6498 23H10.3498C9.43855 23 8.69983 22.2224 8.69983 21.2632C8.69983 20.304 9.43855 19.5263 10.3498 19.5263H13.6498C14.5611 19.5263 15.2998 20.304 15.2998 21.2632C15.2998 22.2224 14.5611 23 13.6498 23Z" stroke="white" stroke-width="1.5"/>
</svg>
