<svg width="136" height="39" viewBox="0 0 136 39" fill="none" xmlns="http://www.w3.org/2000/svg">
<g clip-path="url(#clip0_1_9)">
<path d="M18.9943 13.3295C18.1408 13.3286 17.3069 13.0707 16.5978 12.5884C15.8886 12.1061 15.3362 11.4211 15.0103 10.6198C14.6844 9.81868 14.5995 8.93735 14.7666 8.08721C14.9336 7.23708 15.345 6.45637 15.9488 5.84371C16.5526 5.23106 17.3216 4.81394 18.1587 4.64516C18.9957 4.47639 19.8632 4.56351 20.6516 4.89547C21.4399 5.22743 22.1137 5.78938 22.5877 6.51024C23.0618 7.23113 23.3148 8.07855 23.3148 8.94548C23.3135 10.1086 22.8578 11.2237 22.0476 12.0458C21.2375 12.8678 20.1393 13.3295 18.9943 13.3295ZM18.9943 5.60969C18.3448 5.60969 17.7099 5.80532 17.1698 6.17186C16.6299 6.5384 16.2089 7.05933 15.9604 7.66892C15.7118 8.27844 15.6468 8.94911 15.7735 9.59618C15.9003 10.2432 16.213 10.8376 16.6722 11.3042C17.1315 11.7707 17.7166 12.0884 18.3536 12.2171C18.9905 12.3458 19.6508 12.2797 20.2509 12.0272C20.8509 11.7748 21.3638 11.3472 21.7246 10.7986C22.0854 10.2501 22.278 9.60517 22.278 8.94548C22.278 8.06077 21.932 7.21222 21.3162 6.58668C20.7004 5.9611 19.8652 5.60969 18.9943 5.60969Z" fill="#FFF4B8"/>
<path d="M19.0835 38.771C14.0528 38.7662 9.22711 36.7457 5.65413 33.1483C2.08116 29.551 0.0494146 24.667 0 19.557V19.3854C0 14.2441 2.01056 9.3134 5.5894 5.67789C9.16822 2.0424 14.0222 0 19.0835 0C24.1447 0 28.9986 2.0424 32.5775 5.67789C36.1563 9.3134 38.1669 14.2441 38.1669 19.3854V19.557C38.1162 24.6666 36.0841 29.5498 32.5114 33.147C28.9387 36.7441 24.1137 38.7649 19.0835 38.771ZM1.03205 19.4712C1.0144 23.1018 2.05807 26.6559 4.03083 29.6834C6.00358 32.7108 8.81664 35.0751 12.1135 36.477C15.4104 37.8787 19.0427 38.2548 22.5501 37.5575C26.0576 36.8603 29.2824 35.121 31.8159 32.5601C34.3493 29.9993 36.0774 26.7321 36.7812 23.1726C37.485 19.6131 37.1327 15.9215 35.7691 12.5655C34.4055 9.20962 32.0919 6.3404 29.1214 4.32146C26.151 2.30252 22.6575 1.22472 19.0835 1.22467C14.3128 1.22962 9.73766 3.15077 6.356 6.56901C2.97432 9.98724 1.06053 14.6252 1.03205 19.4712Z" fill="#FFF4B8"/>
<path d="M8.27973 34.53H7.93264V31.566C7.99569 28.2724 9.32797 25.1354 11.6432 22.8289C13.9585 20.5223 17.072 19.2302 20.3148 19.2302C23.5577 19.2302 26.6711 20.5223 28.9863 22.8289C31.3016 25.1354 32.6339 28.2724 32.697 31.566V32.6239H32.3498V31.5374C32.2876 28.3367 30.9923 25.2885 28.7421 23.0473C26.4919 20.8062 23.4662 19.5508 20.3148 19.5508C17.1635 19.5508 14.1378 20.8062 11.8875 23.0473C9.63726 25.2885 8.34194 28.3367 8.27973 31.5374V34.53Z" fill="#FFF4B8"/>
<path d="M11.6858 36.127H11.3387V14.5637C11.333 12.8563 10.9762 11.1689 10.2912 9.60973C9.60609 8.05059 8.60796 6.654 7.3606 5.50953L7.59518 5.24747C8.87898 6.42667 9.90601 7.86538 10.6104 9.47132C11.3149 11.0773 11.6812 12.8151 11.6858 14.5732V36.127Z" fill="#FFF4B8"/>
<path d="M33.9867 31.3947C31.3929 30.6743 29.0875 29.1439 27.3966 27.02C25.7058 24.896 24.7148 22.2859 24.5638 19.5586C24.4129 16.8313 25.1097 14.1249 26.5557 11.8218C28.0016 9.51871 30.1235 7.73555 32.6216 6.72446L33.011 7.67751C30.7139 8.60624 28.7626 10.245 27.4326 12.3621C26.1028 14.4791 25.4617 16.9673 25.6003 19.4747C25.7387 21.9822 26.6497 24.3819 28.2044 26.3345C29.759 28.2872 31.8787 29.6939 34.2635 30.3558L33.9867 31.3947Z" fill="#FFF4B8"/>
<path d="M56.2837 2.1922H56.5135L50.5324 16.1929H50.129L44.1478 2.1922H45.9163L51.0765 14.3105L56.2837 2.1922Z" fill="#FFF4B8" stroke="white" stroke-width="0.431405"/>
<path d="M108.29 2.1922H108.52L102.538 16.1929H102.135L96.154 2.1922H97.922L103.083 14.3105L108.29 2.1922Z" fill="#FFF4B8" stroke="white" stroke-width="0.431405"/>
<path d="M59.9386 16.1736H58.3155V2.2064H59.9386V16.1736Z" fill="#FFF4B8" stroke="white" stroke-width="0.431405"/>
<path d="M111.944 16.1736H110.321V2.2064H111.944V16.1736Z" fill="#FFF4B8" stroke="white" stroke-width="0.431405"/>
<path d="M71.9948 2.2064V2.42082H67.6649V16.1784H66.0511V2.42082H61.6886V2.2064H71.9948Z" fill="#FFF4B8" stroke="white" stroke-width="0.431405"/>
<path d="M83.2066 16.2264H81.1705L76.4463 9.92186L75.4195 10.2269V16.1931H73.7959V2.21624H78.4635C78.6653 2.21624 78.8956 2.21624 79.1533 2.21624C79.4331 2.23804 79.709 2.29573 79.9745 2.38785C80.5725 2.60068 81.0989 2.98054 81.4946 3.48385C81.98 4.08162 82.2423 4.83426 82.2358 5.60924C82.2338 6.28523 82.0418 6.94663 81.682 7.51537C81.2942 8.14022 80.7085 8.61245 80.0214 8.85445C79.5945 9.00688 79.1533 9.1451 78.7128 9.25946C78.5058 9.31188 78.3093 9.36905 78.1122 9.43099L83.2066 16.2264ZM75.4195 10.0315L75.5509 9.98856L76.6344 9.66929C77.356 9.47687 78.066 9.23976 78.7596 8.95922C79.1904 8.66117 79.5528 8.27078 79.8196 7.81553C80.1821 7.18532 80.3721 6.46783 80.3682 5.73786C80.3669 5.10684 80.2289 4.48386 79.9647 3.91274C79.6882 3.3138 79.249 2.80777 78.6985 2.45451H75.4149L75.4195 10.0315Z" fill="#FFF4B8" stroke="white" stroke-width="0.431405"/>
<path d="M94.6215 2.16831H94.8323V11.0272C94.8336 11.5384 94.7627 12.0471 94.6215 12.5378C94.3938 13.3416 93.9747 14.0764 93.4021 14.6774C92.9544 15.1582 92.4149 15.5409 91.8163 15.802C90.9677 16.1726 90.0307 16.2826 89.121 16.1183C88.2113 15.954 87.3693 15.5227 86.6984 14.8776L86.4921 14.6774C85.6501 13.7802 85.1516 12.6076 85.0846 11.3703C85.0846 11.2559 85.0846 11.1415 85.0846 11.0272V9.6404C85.0846 8.74453 85.0846 7.73429 85.0846 6.59059C85.0846 5.4469 85.0846 3.99822 85.0846 2.23504H86.7075V12.0899C86.7198 12.4204 86.7621 12.749 86.8344 13.0715C86.9274 13.4743 87.0712 13.8634 87.2612 14.2294C87.4766 14.6373 87.7753 14.9933 88.1384 15.2731C88.5744 15.6069 89.0826 15.8306 89.6207 15.9259L89.9585 15.9783C90.5825 15.9825 91.2 15.8509 91.7694 15.5923C92.3303 15.3392 92.8372 14.9765 93.2609 14.5249C93.6903 14.068 94.0313 13.5328 94.2649 12.9475C94.5096 12.3429 94.6339 11.6951 94.6313 11.0414L94.6215 2.16831Z" fill="#FFF4B8" stroke="white" stroke-width="0.431405"/>
<path d="M118.911 2.2064L123.917 16.2023H122.19L120.881 12.5377H115.29C115.236 12.6774 115.133 12.9634 114.98 13.3954L114.483 14.7727C114.347 15.1634 114.225 15.497 114.126 15.7686C114.028 16.0402 113.976 16.1832 113.971 16.2023H113.751L114.539 14.0054C115.008 12.6187 115.608 11.0223 116.26 9.20195C116.913 7.38158 117.485 5.78041 117.982 4.39846L118.766 2.2064H118.911ZM118.09 4.72247L118.01 4.93218L117.935 5.14659C117.809 5.49923 117.682 5.85191 117.56 6.19978C117.438 6.54765 117.302 6.91457 117.175 7.26722C117.049 7.61987 116.903 8.02012 116.772 8.39663L116.364 9.53074L115.773 11.1796L115.67 11.4607L115.562 11.7705C115.515 11.8991 115.468 12.023 115.426 12.1517L115.36 12.3233H120.816L120.126 10.4171L120.056 10.2074L118.09 4.72247Z" fill="#FFF4B8" stroke="white" stroke-width="0.431405"/>
<path d="M135.349 2.14959V16.1645H134.95L125.995 4.58946V16.1311H125.793V2.16384H126.187L135.147 13.7485V2.14959H135.349Z" fill="#FFF4B8" stroke="white" stroke-width="0.431405"/>
<path d="M54.2713 22.0589V22.2685H49.9977V35.8499H48.4027V22.2685H44.0963V22.0589H54.2713Z" fill="#FFF4B8" stroke="white" stroke-width="0.431405"/>
<path d="M48.5344 35.7216H49.8714V22.188H48.5344V35.7216Z" fill="#FFF4B8" stroke="white" stroke-width="0.431405"/>
<path d="M65.3379 35.8976H63.3301L58.6625 29.6693L57.6492 29.9695V35.8594H56.0495V22.0684H60.6562C60.8579 22.0684 61.0831 22.0685 61.3364 22.0923C61.6133 22.1123 61.8862 22.17 62.148 22.2638C62.738 22.4725 63.2582 22.8457 63.6491 23.3408C64.1286 23.9303 64.3878 24.6729 64.3809 25.4376C64.3756 26.099 64.1852 26.7451 63.8321 27.3008C63.4488 27.9171 62.8719 28.384 62.1948 28.6256C61.7664 28.7749 61.3348 28.9083 60.9001 29.0258C60.6984 29.0783 60.5014 29.1308 60.309 29.1927L65.3379 35.8976ZM57.6351 29.7645L57.7665 29.7216C58.0104 29.6549 58.3669 29.5501 58.836 29.4071C59.5496 29.2213 60.2501 28.9873 60.9329 28.7066C61.3606 28.4145 61.7181 28.0286 61.9791 27.5772C62.3384 26.9563 62.5264 26.2484 62.5232 25.5281C62.5232 24.9051 62.387 24.2899 62.1245 23.7268C61.8515 23.139 61.4184 22.6429 60.8767 22.2972H57.6351V29.7645Z" fill="#FFF4B8" stroke="white" stroke-width="0.431405"/>
<path d="M71.5672 22.0592L76.5166 35.8787H74.8137L73.5187 32.257H67.9928C67.9414 32.3952 67.8425 32.6764 67.6831 33.1101C67.5237 33.5437 67.3688 33.9917 67.2139 34.4682C67.0734 34.8542 66.9563 35.1783 66.8626 35.4499C66.7682 35.7215 66.7122 35.8596 66.7077 35.8787H66.4871C66.5151 35.7993 66.7747 35.075 67.266 33.7057L68.9637 28.9689L70.6621 24.2036L71.4358 22.0402L71.5672 22.0592ZM70.7701 24.5229C70.7467 24.5943 70.7181 24.6658 70.6901 24.7373L70.6198 24.947L70.2443 25.9858C70.1181 26.3384 69.9912 26.6864 69.8695 27.039C69.7472 27.3916 69.6021 27.7824 69.4706 28.1541C69.3392 28.5258 69.1986 28.8975 69.0672 29.2739L68.4854 30.8989L68.382 31.1753L68.274 31.4803L68.138 31.8615C68.138 31.9187 68.0963 31.9711 68.0774 32.0283H73.4628L72.7821 30.1221L72.7119 29.9172L70.7701 24.5229Z" fill="#FFF4B8" stroke="white" stroke-width="0.431405"/>
<path d="M86.673 24.0892C87.6243 25.0514 88.2724 26.2791 88.5353 27.6162C88.7989 28.9533 88.6648 30.3398 88.1508 31.5995C87.8072 32.4385 87.3055 33.2011 86.673 33.8439C85.6904 34.841 84.4293 35.5065 83.0608 35.7501C82.8689 35.7882 82.6763 35.812 82.4791 35.8311C82.2819 35.8501 82.0757 35.8311 81.8739 35.8311H78.2761V22.0402H81.8603C82.1739 22.041 82.4876 22.0633 82.798 22.1069L83.0465 22.145C84.4241 22.3972 85.6911 23.0764 86.673 24.0892ZM83.0608 35.5261H83.178C84.6213 34.7618 85.7464 33.4971 86.3496 31.9616C86.6606 31.1738 86.82 30.3325 86.8187 29.4836V28.3352C86.8226 27.5218 86.6814 26.7144 86.401 25.9524C85.8563 24.4815 84.8288 23.2462 83.4923 22.4547L83.07 22.3594C82.6789 22.2868 82.2813 22.2502 81.8837 22.2498H79.899V35.6262H81.8837C82.2774 35.6331 82.6717 35.6044 83.0608 35.5404V35.5261Z" fill="#FFF4B8" stroke="white" stroke-width="0.431405"/>
<path d="M99.1564 22.2782H92.2887V28.2254H96.6888V28.435H92.2887V35.6498H99.1564V35.8594H90.712V22.0684H99.1564V22.2782Z" fill="#FFF4B8" stroke="white" stroke-width="0.431405"/>
</g>
<defs>
<clipPath id="clip0_1_9">
<rect width="136" height="39" fill="white"/>
</clipPath>
</defs>
</svg>
