<svg width="23" height="23" viewBox="0 0 23 23" fill="none" xmlns="http://www.w3.org/2000/svg">
<circle cx="11.5" cy="11.5" r="11.5" fill="#A6A6A6"/>
<path d="M15.5625 15.2422V17H7.78125V15.5L11.4609 11.5547C11.8307 11.1432 12.1224 10.7812 12.3359 10.4688C12.5495 10.151 12.7031 9.86719 12.7969 9.61719C12.8958 9.36198 12.9453 9.11979 12.9453 8.89062C12.9453 8.54688 12.888 8.2526 12.7734 8.00781C12.6589 7.75781 12.4896 7.5651 12.2656 7.42969C12.0469 7.29427 11.776 7.22656 11.4531 7.22656C11.1094 7.22656 10.8125 7.3099 10.5625 7.47656C10.3177 7.64323 10.1302 7.875 10 8.17188C9.875 8.46875 9.8125 8.80469 9.8125 9.17969H7.55469C7.55469 8.5026 7.71615 7.88281 8.03906 7.32031C8.36198 6.7526 8.81771 6.30208 9.40625 5.96875C9.99479 5.63021 10.6927 5.46094 11.5 5.46094C12.2969 5.46094 12.9688 5.59115 13.5156 5.85156C14.0677 6.10677 14.4844 6.47656 14.7656 6.96094C15.0521 7.4401 15.1953 8.01302 15.1953 8.67969C15.1953 9.05469 15.1354 9.42188 15.0156 9.78125C14.8958 10.1354 14.724 10.4896 14.5 10.8438C14.2812 11.1927 14.0156 11.5469 13.7031 11.9062C13.3906 12.2656 13.0443 12.638 12.6641 13.0234L10.6875 15.2422H15.5625Z" fill="white"/>
</svg>
