<svg width="23" height="23" viewBox="0 0 23 23" fill="none" xmlns="http://www.w3.org/2000/svg">
<circle cx="11.5" cy="11.5" r="11.5" fill="#B66225"/>
<path d="M10.0859 10.3359H11.2891C11.6745 10.3359 11.9922 10.2708 12.2422 10.1406C12.4922 10.0052 12.6771 9.81771 12.7969 9.57812C12.9219 9.33333 12.9844 9.04948 12.9844 8.72656C12.9844 8.4349 12.9271 8.17708 12.8125 7.95312C12.7031 7.72396 12.5339 7.54688 12.3047 7.42188C12.0755 7.29167 11.7865 7.22656 11.4375 7.22656C11.1615 7.22656 10.9062 7.28125 10.6719 7.39062C10.4375 7.5 10.25 7.65365 10.1094 7.85156C9.96875 8.04948 9.89844 8.28906 9.89844 8.57031H7.64062C7.64062 7.94531 7.80729 7.40104 8.14062 6.9375C8.47917 6.47396 8.93229 6.11198 9.5 5.85156C10.0677 5.59115 10.6927 5.46094 11.375 5.46094C12.1458 5.46094 12.8203 5.58594 13.3984 5.83594C13.9766 6.08073 14.4271 6.44271 14.75 6.92188C15.0729 7.40104 15.2344 7.99479 15.2344 8.70312C15.2344 9.0625 15.151 9.41146 14.9844 9.75C14.8177 10.0833 14.5781 10.3854 14.2656 10.6562C13.9583 10.9219 13.5833 11.1354 13.1406 11.2969C12.6979 11.4531 12.2005 11.5312 11.6484 11.5312H10.0859V10.3359ZM10.0859 12.0469V10.8828H11.6484C12.2682 10.8828 12.8125 10.9531 13.2812 11.0938C13.75 11.2344 14.1432 11.4375 14.4609 11.7031C14.7786 11.9635 15.0182 12.2734 15.1797 12.6328C15.3411 12.987 15.4219 13.3802 15.4219 13.8125C15.4219 14.3438 15.3203 14.8177 15.1172 15.2344C14.9141 15.6458 14.6276 15.9948 14.2578 16.2812C13.8932 16.5677 13.4661 16.7865 12.9766 16.9375C12.487 17.0833 11.9531 17.1562 11.375 17.1562C10.8958 17.1562 10.4245 17.0911 9.96094 16.9609C9.5026 16.8255 9.08594 16.625 8.71094 16.3594C8.34115 16.0885 8.04427 15.75 7.82031 15.3438C7.60156 14.9323 7.49219 14.4453 7.49219 13.8828H9.75C9.75 14.1745 9.82292 14.4349 9.96875 14.6641C10.1146 14.8932 10.3151 15.0729 10.5703 15.2031C10.8307 15.3333 11.1198 15.3984 11.4375 15.3984C11.7969 15.3984 12.1042 15.3333 12.3594 15.2031C12.6198 15.0677 12.8177 14.8802 12.9531 14.6406C13.0938 14.3958 13.1641 14.112 13.1641 13.7891C13.1641 13.3724 13.0885 13.0391 12.9375 12.7891C12.7865 12.5339 12.5703 12.3464 12.2891 12.2266C12.0078 12.1068 11.6745 12.0469 11.2891 12.0469H10.0859Z" fill="white"/>
</svg>
